<svg width="111" height="28" viewBox="0 0 111 28" fill="none" xmlns="http://www.w3.org/2000/svg">
<g clip-path="url(#clip0_360_5188)">
<path d="M0.5 5.91663C0.634391 5.85339 0.721901 5.7775 0.815662 5.77117C4.3692 5.5024 4.51297 5.66999 5.1693 10.2423C5.46621 12.3102 5.85063 14.3655 6.51633 16.4714C6.78824 15.1782 7.06014 13.8849 7.32893 12.5916C7.73522 10.6407 8.22591 8.6992 8.50719 6.72926C8.62595 5.88817 8.89473 5.74588 9.63545 5.73007C12.7452 5.66999 12.8421 5.82177 13.2952 9.5403C13.5828 11.9023 14.0891 14.2391 14.6767 16.541C15.258 13.3157 15.8268 10.0873 16.4269 6.86839C16.5675 6.11899 16.8707 5.56248 17.8552 5.72058C18.6584 5.85022 19.4991 5.74588 20.3961 5.74588C19.1303 10.7292 17.8958 15.5892 16.6581 20.4493C16.3862 21.5149 15.258 21.9354 13.9203 21.3915C12.9265 20.9868 12.2483 20.2374 12.0107 19.1339C11.4263 16.4082 10.8762 13.6794 10.3512 10.9031C9.76671 13.6762 9.23852 16.462 8.56657 19.2129C8.36342 20.0477 8.90411 21.4548 7.26017 21.5117C5.65685 21.5686 3.94415 20.4587 3.60349 19.0453C2.55649 14.6723 1.5345 10.2897 0.5 5.91663Z" fill="#1E71B7"/>
<path d="M36.6136 16.7668C36.6762 15.2933 36.5855 13.4277 36.3292 11.5653C36.2699 11.129 35.9823 10.3068 36.6668 10.2373C37.5638 10.1487 38.7889 9.65862 39.339 10.5724C39.7953 11.3313 39.9015 10.9867 40.2891 10.7021C42.0174 9.42779 43.9833 9.49736 45.5866 10.8886C45.8929 11.1543 46.0241 11.4167 46.5492 11.0467C50.134 8.52346 53.3062 9.92107 53.6688 14.2309C53.85 16.3684 53.6875 18.5312 53.7094 20.6846C53.7157 21.2822 53.5094 21.551 52.8999 21.5193C52.3311 21.4909 51.7561 21.4688 51.1904 21.5257C50.384 21.6047 50.284 21.1937 50.2559 20.5012C50.1809 18.5723 50.4903 16.6404 50.059 14.7147C49.8246 13.6649 49.4339 12.672 48.3025 12.7985C47.0993 12.9345 46.8117 13.9653 46.8742 15.1637C46.9649 16.8902 46.8586 18.6261 46.9149 20.3589C46.9399 21.2031 46.7523 21.6458 45.821 21.5257C45.3615 21.4656 44.8834 21.4688 44.4239 21.5257C43.5551 21.63 43.3832 21.2031 43.4082 20.4285C43.4551 18.9613 43.4301 17.4909 43.4144 16.0206C43.4082 15.5558 43.3613 15.0878 43.2988 14.623C43.1519 13.5226 42.5112 12.6815 41.4392 12.808C40.4422 12.925 40.014 13.842 40.0359 14.9139C40.0703 16.6973 40.0047 18.4838 40.0609 20.2672C40.0891 21.162 39.9359 21.5605 38.9014 21.5446C36.6168 21.5099 36.6168 21.5763 36.6168 19.2206C36.6168 18.5376 36.6168 17.8546 36.6168 16.77L36.6136 16.7668Z" fill="#1E71B7"/>
<path d="M65.1585 17.4705C65.1585 18.0998 65.121 18.7353 65.1679 19.3614C65.221 20.0887 65.2898 21.2744 64.921 21.3914C64.0303 21.6697 62.5988 21.8468 62.0894 21.3408C61.2331 20.4903 60.8924 21.2871 60.4611 21.4863C58.1046 22.5551 55.7605 21.5875 54.9761 19.1432C54.3197 17.0974 55.6105 14.8366 57.7889 14.3148C58.6265 14.1125 59.5016 14.0714 60.3611 13.9449C60.6767 13.8975 61.1455 14.1346 61.2206 13.5654C61.2862 13.0627 60.9549 12.8666 60.5455 12.6579C59.361 12.054 58.2702 12.4492 57.1576 12.8508C56.8075 12.9773 56.2731 13.4611 56.1668 12.7085C56.0699 12.0255 55.1105 11.3931 55.9762 10.6184C58.3046 8.53783 64.1115 10.0145 64.9054 12.9362C65.3054 14.4097 65.1679 15.9559 65.1616 17.4737L65.1585 17.4705ZM61.5487 17.0026C61.6394 16.4176 61.4456 16.0223 60.7205 16.1615C59.6735 16.3607 58.5046 16.4176 58.4484 17.929C58.4171 18.7954 58.9984 19.178 59.686 19.2507C60.7299 19.3614 61.5831 18.2927 61.5518 17.0026H61.5487Z" fill="#1E71B7"/>
<path d="M29.8112 17.331C29.8112 18.0677 29.9113 18.8203 29.7831 19.5317C29.6644 20.1863 30.2332 21.3309 29.3362 21.4036C28.4798 21.4732 27.2484 22.289 26.5452 20.7965C26.2858 20.2432 25.9045 20.9388 25.6139 21.119C23.173 22.6431 20.3508 21.7198 19.7038 19.1428C19.3131 17.5808 19.9007 15.731 21.3603 14.8867C22.4416 14.2638 23.6105 13.9413 24.8732 13.9255C25.2607 13.9191 25.9264 14.248 25.9827 13.5207C26.0327 12.8662 25.5264 12.4678 24.9138 12.3982C23.8887 12.2812 22.8479 12.3223 21.8853 12.7397C21.3915 12.9516 20.8977 13.1065 20.7977 12.4741C20.7039 11.8828 20.032 11.2852 20.7602 10.6148C22.6573 8.87572 28.4361 9.90021 29.3643 12.2401C30.0081 13.8622 29.8269 15.6171 29.8081 17.331H29.8112ZM26.3265 17.0464C26.414 16.4487 26.2515 16.0029 25.5295 16.1673C24.5294 16.3918 23.2886 16.3602 23.2073 17.8527C23.1636 18.6875 23.6293 19.4021 24.4356 19.2376C25.4732 19.0258 26.4515 18.4598 26.3296 17.0464H26.3265Z" fill="#1E71B7"/>
<path d="M35.0083 13.1739C35.0083 15.5296 34.9552 17.8885 35.0333 20.2442C35.0677 21.3161 34.6958 21.6481 33.7082 21.5217C33.2488 21.4616 32.7737 21.4742 32.3111 21.5217C31.5454 21.5944 31.3517 21.2402 31.3548 20.5161C31.3767 15.6466 31.3829 10.7771 31.3517 5.90447C31.3454 5.06337 31.6392 4.7693 32.433 4.84519C32.8956 4.88946 33.3706 4.90211 33.8301 4.84519C34.8302 4.71555 35.0458 5.19301 35.024 6.11C34.9708 8.4657 35.0052 10.8214 35.0052 13.1803L35.0083 13.1739Z" fill="#1E71B7"/>
<path d="M74.8971 13.9638C74.8971 12.2816 74.9064 10.6026 74.8908 8.9204C74.8877 8.36705 74.9189 7.83267 75.5503 7.66824C76.4285 7.44058 77.3348 7.09276 78.2037 7.156C78.5662 7.18129 78.4037 8.20262 78.3537 8.75282C78.2599 9.78996 78.5069 10.3749 79.6726 10.1631C80.6133 9.99233 80.929 10.3591 80.904 11.352C80.879 12.2911 80.7696 12.8856 79.657 12.6864C78.6631 12.5061 78.26 12.8919 78.3568 13.9512C78.4475 14.9409 78.4037 15.9464 78.3693 16.9424C78.3287 18.0871 78.71 18.8491 79.9351 18.9883C81.1197 19.1211 80.4133 20.0381 80.5352 20.5851C80.6665 21.1764 80.5196 21.6855 79.7351 21.8341C76.8067 22.3779 74.9814 20.9266 74.9096 17.9037C74.8783 16.5915 74.9033 15.2761 74.9033 13.9638H74.8971Z" fill="#1E71B7"/>
<path d="M66.549 16.4646C66.549 14.8424 66.5303 13.2172 66.5615 11.5951C66.5709 11.1208 66.2208 10.3302 66.8772 10.2449C67.7741 10.131 68.9774 9.68203 69.5681 10.5579C69.9963 11.1903 70.0744 11.1555 70.4901 10.7318C70.6714 10.5484 70.8558 10.3524 71.0777 10.2291C71.8715 9.78954 73.006 9.44488 73.4967 10.0583C74.0561 10.7603 73.8124 11.9682 73.5623 12.9263C73.4436 13.3784 72.8904 13.2867 72.4747 13.3247C70.7432 13.4733 70.2776 14.0045 70.2744 15.7721C70.2744 17.293 70.2057 18.8203 70.2963 20.338C70.3557 21.3594 69.9807 21.6439 69.0587 21.5269C68.6493 21.4732 68.2242 21.4795 67.8148 21.5269C66.9584 21.6281 66.599 21.3341 66.6459 20.4044C66.7146 19.0954 66.6646 17.78 66.6646 16.4677C66.6271 16.4677 66.5896 16.4677 66.549 16.4677V16.4646Z" fill="#1E71B7"/>
<path d="M102.852 14.9007C103.249 14.8185 103.552 15.0367 103.871 15.198C105.796 16.1592 107.715 17.1394 109.653 18.0786C111.253 18.8533 110.213 19.8114 109.772 20.5987C109.3 21.4461 108.703 22.3821 107.475 21.4746C105.712 20.1718 103.921 18.9102 102.159 17.6074C101.712 17.2786 101.152 16.8928 101.568 16.2098C101.89 15.6849 101.915 14.8122 102.849 14.9007H102.852Z" fill="#F8B236"/>
<path d="M93.6848 14.8402C94.2505 14.72 94.4661 15.5263 94.788 16.0449C95.0881 16.5287 94.8755 17.0599 94.4005 17.4109C92.469 18.8464 90.55 20.2946 88.5935 21.6891C88.1529 22.0021 87.5809 21.9421 87.209 21.4519C86.8371 20.9618 86.5308 20.4243 86.162 19.931C85.6307 19.2196 85.8338 18.584 86.4995 18.2267C88.606 17.0947 90.7532 16.0417 92.8909 14.9666C93.0222 14.9002 93.191 14.9129 93.6848 14.837V14.8402Z" fill="#F8B236"/>
<path d="M94.8376 10.6897C94.8438 12.0304 93.5812 12.8146 92.5061 12.2739C90.5933 11.3158 88.7213 10.2787 86.7773 9.39013C85.3834 8.7514 85.8928 7.95458 86.3335 7.01546C86.8273 5.97199 87.5774 5.27635 88.6212 5.94986C90.5996 7.22415 92.4529 8.69133 94.3469 10.0984C94.5782 10.2723 94.7313 10.5569 94.8376 10.6897Z" fill="#F8B236"/>
<path d="M110.503 8.11987C110.594 8.91038 110.025 9.11591 109.512 9.37203C107.625 10.3175 105.677 11.1649 103.877 12.2621C102.893 12.8629 102.424 12.4171 101.986 11.7783C101.483 11.0416 101.621 10.2574 102.358 9.72302C103.968 8.55939 105.649 7.48747 107.225 6.27958C107.878 5.77682 108.528 5.48591 109.178 5.92859C109.906 6.42503 110.278 7.2598 110.5 8.11987H110.503Z" fill="#F8B236"/>
<path d="M98.2487 27.5048C96.4484 27.4922 96.3828 27.2044 96.3828 25.3515C96.3828 23.3594 96.8579 21.4085 96.7391 19.4259C96.6797 18.4204 97.0423 18.0156 98.0736 18.0156C99.0956 18.0156 99.4801 18.2876 99.6051 19.4196C99.8176 21.3231 99.7238 23.2519 100.143 25.1428C100.518 26.8377 99.8989 27.5143 98.2487 27.5017V27.5048Z" fill="#F8B236"/>
<path d="M96.7659 6.77964C96.2471 5.21445 96.7003 3.15597 96.1971 1.18604C96.1471 0.996315 96.1127 0.70541 96.2127 0.588415C97.0784 -0.432916 98.238 0.231107 99.2631 0.104627C100.001 0.012928 100.238 0.569443 100.182 1.23347C99.9788 3.65241 99.7913 6.07135 99.5287 8.48397C99.4537 9.16064 98.9443 9.5306 98.213 9.54325C97.4254 9.5559 96.9253 9.20491 96.7784 8.43654C96.7034 8.0318 96.7659 7.60177 96.7659 6.78281V6.77964Z" fill="#F8B236"/>
</g>
<defs>
<clipPath id="clip0_360_5188">
<rect width="110.013" height="27.5032" fill="white" transform="translate(0.5)"/>
</clipPath>
</defs>
</svg>
