<svg width="94" height="26" viewBox="0 0 94 26" fill="none" xmlns="http://www.w3.org/2000/svg">
<g clip-path="url(#clip0_4132_91372)">
<path d="M45.8825 -0.1875V11.0284H45.8169C44.5598 9.58779 43.0013 9.09016 41.1808 9.09016C37.4615 9.09016 34.6588 11.6308 33.6765 14.9704C31.3192 7.19093 20.9203 7.42672 17.7117 13.1368V9.96753H10.5346V6.53624H18.3926V1.15342H4.11719V25.3037H10.5346V15.1537H16.9389C16.7423 15.9003 16.6377 16.6995 16.6377 17.5373C16.6377 27.1112 30.075 29.5074 33.6894 20.6411H28.1889C26.2636 23.3784 22.1906 21.8066 22.1906 18.7292H33.3882C33.8727 22.7235 36.9768 26.1812 41.2594 26.1812C43.1059 26.1812 44.7956 25.2776 45.83 23.7448H45.8955V25.3037H54.0436V21.6783V16.2119V10.7454V3.4568L54.0439 -0.1875H45.8825ZM22.3606 15.2058C23.1598 11.7616 27.8221 11.8535 28.4507 15.2058H22.3606ZM42.4512 21.6105C37.9197 21.6105 37.9983 13.3855 42.4512 13.3855C46.7207 13.3857 46.9694 21.6105 42.4512 21.6105Z" fill="#442E8C"/>
<path d="M68.3982 25.2666H53.9688V-0.183594H68.4898V4.43264H59.9146V9.6143H68.3982V13.9095H59.8228V20.7423H68.3982V25.2666Z" fill="#F47624"/>
<path d="M78.9774 20.7568L74.9875 25.2663H69.1641L76.1342 17.44L69.1641 9.61328H75.2324L79.2983 14.0923L83.2118 9.61328H89.0968L82.1573 17.4095L89.1886 25.2663H82.9976L78.9774 20.7568Z" fill="#F47624"/>
</g>
<defs>
<clipPath id="clip0_4132_91372">
<rect width="93.2941" height="26" fill="white"/>
</clipPath>
</defs>
</svg>
