<svg width="32" height="33" viewBox="0 0 32 33" fill="none" xmlns="http://www.w3.org/2000/svg">
<g clip-path="url(#clip0_221_216)">
<path d="M16 1.03235L4 5.74488V15.7607C4.00391 18.3138 4.68324 20.8213 5.97012 23.0323C7.257 25.2433 9.10635 27.0806 11.3333 28.3605L16 31.0323L20.6667 28.36C22.8936 27.0802 24.7429 25.2429 26.0297 23.032C27.3167 20.821 27.996 18.3138 28 15.7607V5.74488L16 1.03235ZM25.3333 15.7607C25.3301 17.8497 24.7744 19.9011 23.7215 21.7102C22.6685 23.5191 21.1555 25.0225 19.3333 26.0696L16 27.978L12.6667 26.0689C10.8447 25.0218 9.33159 23.5188 8.27868 21.7098C7.22579 19.9009 6.66993 17.8495 6.66667 15.7607V7.54273L16 3.87734L25.3333 7.54273V15.7607ZM12.3541 13.196L10.7527 14.7861L15.1967 19.195L21.4973 12.9455L19.8959 11.3555L15.1967 16.0151L12.3541 13.196Z" fill="#2CDB64"/>
</g>
<defs>
<clipPath id="clip0_221_216">
<rect width="32" height="32" fill="white" transform="translate(0 0.0323486)"/>
</clipPath>
</defs>
</svg>
